<svg height="512" viewBox="0 0 512 512" width="512" xmlns="http://www.w3.org/2000/svg"><g id="Layer_3" data-name="Layer 3"><path d="m452.49 459.23v3.89a37.881 37.881 0 0 1 -37.88 37.88h-266.34s45.26-4.85 95.86-40.46c55.43-39.01 96.49-39.19 97.23-39.19h73.25a37.881 37.881 0 0 1 37.88 37.88z" fill="#c24e38"/><path d="m258.44 11a117.773 117.773 0 0 0 -117.7 117.81c0 47.7 28.08 88.19 68.82 107.19h.01l95.01 1.19a117.827 117.827 0 0 0 -46.14-226.19z" fill="#6addc7"/><path d="m170.74 128.81a117.816 117.816 0 0 1 102.7-116.862 117.788 117.788 0 0 0 -132.7 116.862c0 47.7 28.08 88.19 68.82 107.19h30c-40.74-19-68.82-59.49-68.82-107.19z" fill="#55a394"/><path d="m411.66 361.22-16.53-68.12c-4-14.36-9.34-24.59-20.18-32.1-6.58-4.57-15.19-8.13-26.76-11.01a258.6 258.6 0 0 0 -29.3-5.21c-20.94 109.51-110.7 135.11-110.7 135.11l-2.26 41.46h137.44l46.16-17.88a36.107 36.107 0 0 0 22.13-42.25z" fill="#fb6771"/><path d="m321.21 142.57s24.72-.47 5.08 32.07c-1.54 2.57-2.86 4.59-3.23 6.63-3.66 19.85-20.47 7.14-20.47 7.14a48.631 48.631 0 0 0 5.97-23.43v-16.74h.69a15.434 15.434 0 0 0 11.96-5.67z" fill="#efc597"/><path d="m324.72 125.78v6.96a15.489 15.489 0 0 1 -15.47 15.5h-.69v-20.97a22.944 22.944 0 0 0 -9.35-18.49 15.441 15.441 0 0 0 -9.17-2.78 26.034 26.034 0 0 0 -10.57 2.47c-11.6 7.79-23.56 8.18-38.15-.6-2.05-1.47-5.58-2.34-9.16-2.34-3.46 0-6.97.81-9.23 2.68a25.363 25.363 0 0 0 -11.8 21.41v18.62a15.488 15.488 0 0 1 -15.46-15.5v-6.96c0-22.25 11.21-35.91 28.28-47.54a15.4 15.4 0 0 0 6.65-11.05c1.03-9.33 6.24-24.47 29.23-24.48 21.34 0 27.2 15.55 28.79 24.72a15.056 15.056 0 0 0 6.63 10.03c17.73 11.52 29.47 25.57 29.47 48.32z" fill="#6d7486"/><path d="m208.19 347.1v-33.08s73.89-1.41 91.33-81.93a63.568 63.568 0 0 0 5.06 5.06c4.62 4.08 9.59 7.02 14.31 7.63-20.94 109.51-110.7 135.11-110.7 135.11z" fill="#fc8692"/><g fill="#efc597"><path d="m285.28 206.62-53.88-2.01c-3.1 11.92-12.51 23.62-21.83 31.31h-.01c-.46.38-.91.74-1.37 1.1v77s73.89-1.41 91.33-81.93c-7.69-8.57-13.57-19.37-14.24-25.47z"/><path d="m208.18 392.37-21.96-12.48-26.2-14.9.02-.03-1.95-113.59c-26.2 7.69-35.22 20.14-41.22 41.73l-16.53 68.12a36.107 36.107 0 0 0 22.13 42.25l46.42 17.88h41.04v-.18l11.46-21.29z"/><path d="m218.55 190.88s-16.66 6.1-19.65-9.61c-.39-2.04-1.69-4.06-3.23-6.63-19.64-32.54 4-31.5 4-31.5a15.4 15.4 0 0 0 11.46 5.1v16.74a48.642 48.642 0 0 0 7.42 25.9z"/></g><path d="m193.11 244.78c-4.5.55-8.71 1.13-12.67 1.76a180.932 180.932 0 0 0 -22.35 4.83l1.95 113.59-.02.03 26.2 14.9 21.96 12.48.01-.01v-155.34c-5.64 4.41-11.15 7.28-15.08 7.76z" fill="#e75163"/><path d="m299.21 108.78a15.441 15.441 0 0 0 -9.17-2.78 26.034 26.034 0 0 0 -10.57 2.47c-11.6 7.79-23.56 8.18-38.15-.6-2.05-1.47-5.58-2.34-9.16-2.34-3.46 0-6.97.81-9.23 2.68a25.363 25.363 0 0 0 -11.8 21.41v35.36a48.715 48.715 0 1 0 97.43 0v-37.71a22.944 22.944 0 0 0 -9.35-18.49z" fill="#ffd8b7"/><path d="m97.39 421c-20.92 0-37.39 17.31-37.39 38.23v3.89c0 20.92 16.47 37.88 37.39 37.88h52.88s45.26-5.025 95.86-40.635c55.43-39.01 96.49-39.365 97.23-39.365z" fill="#ed6337"/><path d="m130.34 361.22 16.53-68.12c2.749-9.893 6.139-17.862 11.519-24.338l-.3-17.392c-26.2 7.69-35.22 20.14-41.22 41.73l-16.53 68.12a35.9 35.9 0 0 0 22.131 42.08l46.42 17.7h30l-46.42-17.7a35.9 35.9 0 0 1 -22.13-42.08z" fill="#cea882"/><path d="m90 463.12v-3.89c0-20.92 16.47-38.23 37.39-38.23h-30c-20.92 0-37.39 17.31-37.39 38.23v3.89c0 20.92 16.47 37.88 37.39 37.88h30c-20.92 0-37.39-16.96-37.39-37.88z" fill="#cc593a"/><path d="m209.607 353.155a20.462 20.462 0 0 1 -2.066-.086 6 6 0 0 1 1.239-11.936c.475.039 22.148 1.406 49.39-26.064a6 6 0 0 1 8.52 8.45c-27.137 27.364-50.19 29.636-57.083 29.636z" fill="#d37f8b"/><path d="m230.692 405.311a6 6 0 0 1 -1.787-11.728c24.69-7.712 40.018-18.929 48.528-26.981 9.194-8.7 12.635-15.679 12.669-15.748a6 6 0 0 1 10.84 5.146c-.624 1.324-15.893 32.618-68.46 49.037a5.993 5.993 0 0 1 -1.79.274z" fill="#c9616b"/><path d="m366.914 356.424a6 6 0 0 0 -8.2-2.163l-68.346 39.825a6 6 0 1 0 6.042 10.368l18.79-10.949a86.464 86.464 0 0 0 39.446 9.291c1.646 0 3.332-.045 5.049-.141a6 6 0 1 0 -.666-11.981 77.294 77.294 0 0 1 -31.012-4.637l36.739-21.408a6 6 0 0 0 2.158-8.205z" fill="#c9616b"/><g id="_Path_" data-name=" Path "><path d="m95.6 454.5h-2.7a6 6 0 1 1 0-12h2.7a6 6 0 0 1 0 12z" fill="#f4f8fc"/></g><g id="_Path_2" data-name=" Path "><path d="m191.675 454.5h-76.71a6 6 0 0 1 0-12h76.71a6 6 0 0 1 0 12z" fill="#f4f8fc"/></g><path d="m180 297.84a6 6 0 0 0 6-6v-45.3c0-.3.191-.593.148-.882-2.037.284-4.123.576-6.038.881q-3.107.5-6.11 1.03v44.27a6 6 0 0 0 6 6.001z" fill="#ba475a"/><path d="m192 338a6 6 0 0 0 -12 0v38.48l6.108 3.41 5.16 2.965a5.93 5.93 0 0 0 .732-2.965z" fill="#ba475a"/><path d="m307.38 412.17a5.728 5.728 0 0 1 .72 2.8 6.449 6.449 0 0 1 -6.32 6.38h-53.07c6.9-.38 12.14-7.19 7.02-13.12l7.57-5.61a29.875 29.875 0 0 1 44.08 9.55z" fill="#efc597"/><path d="m255.73 408.23c5.12 5.93-.12 12.74-7.02 13.12h-38.78v-.18a6.061 6.061 0 0 1 -5.31-9 24.767 24.767 0 0 1 16.77-12.29 34.292 34.292 0 0 1 9.3-.57c9.08.61 17.4 4.16 20.82 5.8a13.3 13.3 0 0 1 3.65 2.5c.2.2.39.41.57.62z" fill="#ffd8b7"/><g fill="#c9616b"><path d="m323.2 354.439a6 6 0 1 0 6.613 10.013c22.368-14.772 38.305-37.4 46.086-65.431a140.147 140.147 0 0 0 5.055-33.032 44.346 44.346 0 0 0 -6.004-4.989 53.322 53.322 0 0 0 -5.117-3.126 5.987 5.987 0 0 0 -.876 3.421c.03.605 2.375 61.359-45.757 93.144z"/><path d="m315.219 316.683a6 6 0 0 0 8.3 8.668c27.462-26.3 30.343-65.219 30.642-73.735q-2.849-.848-5.97-1.626c-1.865-.465-3.817-.91-5.839-1.341a6 6 0 0 0 -.157 1.343c-.001.408-.309 41.158-26.976 66.691z"/></g></g></svg>