<svg id="Capa_1" enable-background="new 0 0 510.65 510.65" height="512" viewBox="0 0 510.65 510.65" width="512" xmlns="http://www.w3.org/2000/svg"><g id="XMLID_158_"><path id="XMLID_3440_" d="m237.318 433.897h30v61.753h-30z" fill="#ecebec"/><path id="XMLID_3459_" d="m252.273 433.897h15.044v61.753h-15.044z" fill="#d3d2d7"/><path id="XMLID_3439_" d="m126.602 480.65h251.432v30h-251.432z" fill="#e68a2e"/><path id="XMLID_159_" d="m397.187 105.82c-32.009 0-58.05-26.041-58.05-58.05v-47.77h-168.206v47.771c0 32.009-26.042 58.05-58.05 58.05h-76.677l23.628 174.854c6.297 46.596 29.263 89.299 64.667 120.241s80.798 47.982 127.818 47.982c45.844 0 90.374-16.298 125.386-45.893 35.012-29.594 58.5-70.787 66.136-115.991l30.606-181.194z" fill="#f3f7fc"/><path id="XMLID_3428_" d="m397.187 105.82c-32.009 0-58.05-26.041-58.05-58.05v-47.77h-86.863v448.897h.044c45.844 0 90.374-16.298 125.386-45.893 35.012-29.594 58.5-70.787 66.136-115.991l30.606-181.194h-77.259z" fill="#ecebec"/><path id="XMLID_3441_" d="m390.624 105.455c-6.94 21.86-20.22 42.72-38.71 60.72-19.48 18.95-43.51 33.15-67.67 39.97l-8.15-28.87c39.77-11.23 75.63-45.76 86.53-82.89 8 5.96 17.59 9.9 28 11.07z" fill="#f3b254"/><path id="XMLID_3432_" d="m228.454 177.275-8.15 28.87c-48.68-13.75-91.78-54.63-106.28-100.34 10.53-.19 20.38-3.22 28.83-8.33 11.69 35.74 47.04 68.91 85.6 79.8z" fill="#ffe666"/><path id="XMLID_3438_" d="m237.273 202.766h30v108.736h-30z" fill="#ffe666"/><g fill="#f3b254"><path id="XMLID_3356_" d="m252.273 202.766h15v108.736h-15z"/><path id="XMLID_3458_" d="m212.384 171.853h79.779v79.779h-79.779z" transform="matrix(.707 -.707 .707 .707 -75.835 240.401)"/><ellipse id="XMLID_3418_" cx="252.273" cy="341.832" rx="36.486" ry="36.486" transform="matrix(.707 -.707 .707 .707 -167.823 278.505)"/></g><path id="XMLID_3423_" d="m252.273 155.33v112.824l56.413-56.412z" fill="#cc9529"/><path id="XMLID_3442_" d="m252.273 305.346v72.972c20.118 0 36.486-16.368 36.486-36.486s-16.367-36.486-36.486-36.486z" fill="#cc9529"/><path id="XMLID_3389_" d="m252.318 480.65h125.716v30h-125.716z" fill="#b36b24"/></g></svg>