<svg id="Capa_1" enable-background="new 0 0 512 512" height="512" viewBox="0 0 512 512" width="512" xmlns="http://www.w3.org/2000/svg"><g><g><g><path d="m250.068 9.602c-115.985 22.479-171.09 91.535-181.976 106.718h375.817c-10.886-15.183-65.992-84.239-181.976-106.718-3.916-.759-7.95-.759-11.865 0z" fill="#b55434"/><path d="m443.91 116.321h-375.82c5.16-7.18 20.21-26.43 46.93-47.09 25.2 19.24 56.69 30.67 90.84 30.67 52.92 0 99.43-27.44 126.08-68.86 68.8 29.72 103.56 73.56 111.97 85.28z" fill="#a1412b"/><path d="m443.91 116.321h-139.34c33.26-6.19 59.68-31.81 67.06-64.63 42.82 26.42 65.68 55.43 72.28 64.63z" fill="#7f392c"/><path d="m56.06 183.721h399.87v173.1h-399.87z" fill="#ffccb7"/><path d="m87.91 316.75v-79.243c0-8.795-7.13-15.925-15.925-15.925-8.795 0-15.925 7.13-15.925 15.925v79.243c0 8.795 7.13 15.925 15.925 15.925 8.795 0 15.925-7.13 15.925-15.925z" fill="#ffdbcf"/><path d="m87.91 282.441v-26.136c0-8.795-7.13-15.925-15.925-15.925-8.795 0-15.925 7.13-15.925 15.925v26.136c0 8.795 7.13 15.925 15.925 15.925 8.795 0 15.925-7.13 15.925-15.925z" fill="#ffece6"/><path d="m455.93 183.721v173.1h-170.69c78.89-11.78 139.4-79.82 139.4-162 0-3.73-.12-7.43-.37-11.1z" fill="#fcad97"/><path d="m455.93 183.721v27.45c-4.34 2.3-9.29 3.61-14.54 3.61-11.21 0-21.02-5.93-26.49-14.83-5.46 8.9-15.28 14.83-26.48 14.83-11.21 0-21.02-5.93-26.49-14.83-5.46 8.9-15.27 14.83-26.48 14.83-11.2 0-21.02-5.93-26.48-14.83-5.47 8.9-15.28 14.83-26.49 14.83-11.2 0-21.02-5.93-26.48-14.83-5.46 8.9-15.28 14.83-26.48 14.83-11.21 0-21.02-5.93-26.49-14.83-5.46 8.9-15.28 14.83-26.48 14.83-11.21 0-21.02-5.93-26.49-14.83-5.46 8.9-15.27 14.83-26.48 14.83-11.2 0-21.02-5.93-26.48-14.83-5.47 8.9-15.28 14.83-26.49 14.83-5.25 0-10.21-1.31-14.55-3.62v-27.44z" fill="#fcad97"/><path d="m70.614 139.966c-17.153 0-31.058 13.905-31.058 31.058s13.905 31.058 31.058 31.058c11.205 0 21.021-5.935 26.484-14.831 5.463 8.896 15.279 14.831 26.484 14.831s21.021-5.935 26.484-14.831c5.463 8.896 15.279 14.831 26.484 14.831s21.021-5.935 26.484-14.831c5.463 8.896 15.279 14.831 26.484 14.831s21.021-5.935 26.484-14.831c5.463 8.896 15.279 14.831 26.484 14.831s21.021-5.935 26.484-14.831c5.463 8.896 15.279 14.831 26.484 14.831s21.021-5.935 26.484-14.831c5.463 8.896 15.279 14.831 26.484 14.831s21.021-5.935 26.484-14.831c5.463 8.896 15.279 14.831 26.484 14.831 17.153 0 31.058-13.905 31.058-31.058s-13.905-31.058-31.058-31.058z" fill="#ff993a"/><path d="m470.81 161.061c-2.89 14.07-15.35 24.65-30.27 24.65-11.16 0-20.93-5.91-26.37-14.76-5.43 8.85-15.21 14.76-26.36 14.76s-20.92-5.91-26.36-14.76c-5.44 8.85-15.21 14.76-26.36 14.76-11.16 0-20.93-5.91-26.37-14.76-5.43 8.85-15.2 14.76-26.36 14.76-11.15 0-20.92-5.91-26.36-14.76-5.44 8.85-15.21 14.76-26.36 14.76-11.16 0-20.93-5.91-26.36-14.76-5.44 8.85-15.21 14.76-26.37 14.76-11.15 0-20.92-5.91-26.36-14.76-5.44 8.85-15.21 14.76-26.36 14.76s-20.93-5.91-26.36-14.76c-5.44 8.85-15.21 14.76-26.37 14.76-14.92 0-27.38-10.58-30.27-24.65 4.15-12.27 15.75-21.1 29.42-21.1h370.78c13.67 0 25.27 8.83 29.42 21.1z" fill="#f97c15"/><path d="m71.464 107.793c-17.074 0-30.916 13.842-30.916 30.916s13.842 30.916 30.916 30.916c11.153 0 20.925-5.908 26.362-14.763 5.438 8.855 15.209 14.763 26.362 14.763s20.925-5.908 26.362-14.763c5.438 8.855 15.209 14.763 26.362 14.763s20.925-5.908 26.362-14.763c5.438 8.855 15.209 14.763 26.362 14.763s20.925-5.908 26.362-14.763c5.438 8.855 15.209 14.763 26.362 14.763s20.925-5.908 26.362-14.763c5.438 8.855 15.209 14.763 26.362 14.763s20.925-5.908 26.362-14.763c5.438 8.855 15.209 14.763 26.362 14.763s20.925-5.908 26.362-14.763c5.438 8.855 15.209 14.763 26.362 14.763 17.074 0 30.916-13.842 30.916-30.916s-13.842-30.916-30.916-30.916z" fill="#ffc751"/><path d="m356.924 107.793h-252.928c-8.884 0-16.086 7.202-16.086 16.086 0 8.884 7.202 16.086 16.086 16.086h252.927c8.884 0 16.086-7.202 16.086-16.086.001-8.884-7.201-16.086-16.085-16.086z" fill="#ffe059"/><path d="m271.394 107.793h-139.37c-8.884 0-16.086 7.202-16.086 16.086 0 8.884 7.202 16.086 16.086 16.086h139.37c8.884 0 16.086-7.202 16.086-16.086 0-8.884-7.202-16.086-16.086-16.086z" fill="#fff370"/><path d="m214.962 107.793h-41.382c-8.884 0-16.086 7.202-16.086 16.086 0 8.884 7.202 16.086 16.086 16.086h41.381c8.884 0 16.086-7.202 16.086-16.086.001-8.884-7.201-16.086-16.085-16.086z" fill="#fff7c7"/><path d="m194.757 352.632h-102.201v-77.744c0-28.222 22.878-51.101 51.101-51.101 28.222 0 51.101 22.878 51.101 51.101v77.744z" fill="#7f392c"/><path d="m194.76 274.891v77.74h-102.2v-14.67c4.42.8 8.97 1.22 13.62 1.22 42.08 0 76.19-34.11 76.19-76.19 0-9.18-1.62-17.98-4.6-26.13.69.61 1.37 1.25 2.02 1.9 9.25 9.24 14.97 22.02 14.97 36.13z" fill="#6d281f"/><g><path d="m424.784 352.632h-171.406v-115.096c0-5.523 4.477-10 10-10h151.405c5.523 0 10 4.477 10 10v115.096z" fill="#b6f0ff"/><path d="m253.378 251.005v43.641c0 7.236 5.866 13.103 13.103 13.103 7.236 0 13.103-5.866 13.103-13.103v-43.641c0-7.236-5.866-13.103-13.103-13.103-7.236.001-13.103 5.867-13.103 13.103z" fill="#dcfeff"/><path d="m279.584 270.284v-3.754c0-7.236-5.866-13.103-13.103-13.103-7.236 0-13.103 5.866-13.103 13.103v3.754c0 7.236 5.866 13.103 13.103 13.103 7.236 0 13.103-5.867 13.103-13.103z" fill="#eefdff"/><path d="m424.78 237.531v115.1h-171.4v-43.04c15.56 13.18 35.69 21.12 57.67 21.12 49.32 0 89.31-39.98 89.31-89.31 0-4.72-.37-9.35-1.08-13.87h15.5c5.53 0 10 4.48 10 10z" fill="#73e1ff"/><g><path d="m298.597 227.536h16.217v125.097h-16.217z" fill="#fcad97"/><path d="m363.349 227.536h16.217v125.097h-16.217z" fill="#fcad97"/><path d="m379.565 311.037v-59.649c0-4.478-3.63-8.108-8.108-8.108-4.478 0-8.108 3.63-8.108 8.108v59.649c0 4.478 3.63 8.108 8.108 8.108 4.478 0 8.108-3.63 8.108-8.108z" fill="#ffccb7"/><path d="m379.565 274.312v-9.877c0-4.478-3.63-8.108-8.108-8.108-4.478 0-8.108 3.63-8.108 8.108v9.877c0 4.478 3.63 8.108 8.108 8.108 4.478 0 8.108-3.63 8.108-8.108z" fill="#ffdbcf"/><path d="m314.814 311.037v-59.649c0-4.478-3.63-8.108-8.108-8.108-4.478 0-8.108 3.63-8.108 8.108v59.649c0 4.478 3.63 8.108 8.108 8.108 4.477 0 8.108-3.63 8.108-8.108z" fill="#ffccb7"/><path d="m314.814 274.312v-9.877c0-4.478-3.63-8.108-8.108-8.108-4.478 0-8.108 3.63-8.108 8.108v9.877c0 4.478 3.63 8.108 8.108 8.108 4.477 0 8.108-3.63 8.108-8.108z" fill="#ffdbcf"/></g></g></g><g><g><path d="m341.423 301.266v61.554c0 4.143 3.357 7.5 7.5 7.5s7.5-3.357 7.5-7.5v-61.554z" fill="#6d281f"/></g><g><path d="m375.531 301.266v61.554c0 4.143 3.357 7.5 7.5 7.5s7.5-3.357 7.5-7.5v-61.554z" fill="#6d281f"/></g><g><path d="m409.641 301.266v61.554c0 4.143 3.357 7.5 7.5 7.5s7.5-3.357 7.5-7.5v-61.554z" fill="#6d281f"/></g><g><path d="m443.75 301.266v61.554c0 4.143 3.357 7.5 7.5 7.5s7.5-3.357 7.5-7.5v-61.554z" fill="#6d281f"/></g></g><g><g><path d="m341.423 301.266h15v19.329h-15z" fill="#591b16"/></g><g><path d="m375.531 301.266h15v19.329h-15z" fill="#591b16"/></g><g><path d="m409.641 301.266h15v19.329h-15z" fill="#591b16"/></g><g><path d="m443.75 301.266h15v19.329h-15z" fill="#591b16"/></g></g><g><path d="m485.358 370.319c-4.143 0-7.5-3.357-7.5-7.5v-54.577h-155.545v54.577c0 4.143-3.357 7.5-7.5 7.5s-7.5-3.357-7.5-7.5v-62.077c0-4.143 3.357-7.5 7.5-7.5h170.545c4.143 0 7.5 3.357 7.5 7.5v62.077c0 4.143-3.357 7.5-7.5 7.5z" fill="#a1412b"/></g><g><path d="m437.027 293.242h-95.657c-4.142 0-7.5 3.358-7.5 7.5 0 4.142 3.358 7.5 7.5 7.5h95.657c4.142 0 7.5-3.358 7.5-7.5 0-4.142-3.358-7.5-7.5-7.5z" fill="#b55434"/></g><g><path d="m411.416 293.242h-46.369c-4.142 0-7.5 3.358-7.5 7.5 0 4.142 3.358 7.5 7.5 7.5h46.369c4.142 0 7.5-3.358 7.5-7.5 0-4.142-3.358-7.5-7.5-7.5z" fill="#db765a"/></g><g><g><g><g><path d="m221.742 462.868h68.516v18.632h-68.516z" fill="#a1412b"/></g><g><path d="m221.742 426.595h68.516v18.632h-68.516z" fill="#a1412b"/></g><g><path d="m221.742 390.322h68.516v18.632h-68.516z" fill="#a1412b"/></g></g><g><g><path d="m264.793 462.868h25.465v18.632h-25.465z" fill="#7f392c"/></g><g><path d="m264.793 426.595h25.465v18.632h-25.465z" fill="#7f392c"/></g><g><path d="m264.793 390.322h25.465v18.632h-25.465z" fill="#7f392c"/></g></g></g><g fill="#7f392c"><g><path d="m394.632 497.834v-125.851c0-2.836-2.299-5.135-5.135-5.135h-9.779c-2.836 0-5.135 2.299-5.135 5.135v125.851c0 2.836 2.299 5.135 5.135 5.135h9.779c2.836 0 5.135-2.299 5.135-5.135z"/><path d="m492.494 497.834v-125.851c0-2.836-2.299-5.135-5.135-5.135h-9.779c-2.836 0-5.135 2.299-5.135 5.135v125.851c0 2.836 2.299 5.135 5.135 5.135h9.779c2.836 0 5.135-2.299 5.135-5.135z"/></g><g><path d="m39.555 497.834v-125.851c0-2.836-2.299-5.135-5.135-5.135h-9.779c-2.836 0-5.135 2.299-5.135 5.135v125.851c0 2.836 2.299 5.135 5.135 5.135h9.779c2.836 0 5.135-2.299 5.135-5.135z"/><path d="m137.417 497.834v-125.851c0-2.836-2.299-5.135-5.135-5.135h-9.779c-2.836 0-5.135 2.299-5.135 5.135v125.851c0 2.836 2.299 5.135 5.135 5.135h9.779c2.836 0 5.135-2.299 5.135-5.135z"/></g></g><g fill="#6d281f"><g><path d="m374.583 430.515h20.049v26.798h-20.049z"/><path d="m394.632 386.595v-14.612c0-2.836-2.299-5.135-5.135-5.135h-9.779c-2.836 0-5.135 2.299-5.135 5.135v14.612z"/><path d="m472.445 430.515h20.049v26.798h-20.049z"/><path d="m492.494 386.595v-14.612c0-2.836-2.299-5.135-5.135-5.135h-9.779c-2.836 0-5.135 2.299-5.135 5.135v14.612z"/></g><g><path d="m39.555 386.595v-14.612c0-2.836-2.299-5.135-5.135-5.135h-9.779c-2.836 0-5.135 2.299-5.135 5.135v14.612z"/><path d="m19.506 430.515h20.049v26.798h-20.049z"/><path d="m137.417 386.595v-14.612c0-2.836-2.299-5.135-5.135-5.135h-9.779c-2.836 0-5.135 2.299-5.135 5.135v14.612z"/><path d="m117.368 430.515h20.049v26.798h-20.049z"/></g></g><g fill="#b55434"><path d="m5.135 372.681h501.73c2.836 0 5.135-2.299 5.135-5.135v-9.779c0-2.836-2.299-5.135-5.135-5.135h-501.73c-2.836 0-5.135 2.299-5.135 5.135v9.779c0 2.836 2.299 5.135 5.135 5.135z"/><path d="m212.367 418.722h-207.232c-2.836 0-5.135 2.299-5.135 5.135v9.779c0 2.836 2.299 5.135 5.135 5.135h207.232z"/><path d="m506.865 418.722h-207.232v20.049h207.232c2.836 0 5.135-2.299 5.135-5.135v-9.779c0-2.836-2.299-5.135-5.135-5.135z"/></g></g><path d="m231.742 288.986h-14.375c-2.761 0-5-2.239-5-5v-41.988c0-2.761 2.239-5 5-5h14.375c2.761 0 5 2.239 5 5v41.988c0 2.761-2.239 5-5 5z" fill="#b55434"/><path d="m236.742 265.884v-5.585c0-6.731-5.456-12.187-12.187-12.187-6.731 0-12.187 5.456-12.187 12.187v5.585c0 6.731 5.456 12.187 12.187 12.187 6.731 0 12.187-5.456 12.187-12.187z" fill="#db765a"/><g><g><path d="m232.416 497.834v-146.851c0-2.836-2.299-5.135-5.135-5.135h-9.779c-2.836 0-5.135 2.299-5.135 5.135v146.851c0 2.836 2.299 5.135 5.135 5.135h9.779c2.836 0 5.135-2.299 5.135-5.135z" fill="#db765a"/></g><path d="m299.633 497.834v-146.851c0-2.836-2.299-5.135-5.135-5.135h-9.779c-2.836 0-5.135 2.299-5.135 5.135v146.851c0 2.836 2.299 5.135 5.135 5.135h9.779c2.836 0 5.135-2.299 5.135-5.135z" fill="#db765a"/></g></g><path d="m261.93 9.601c-3.91-.76-7.95-.76-11.86 0-33.411 6.475-61.765 16.817-85.468 28.621-11.275 5.615-14.54 20.155-6.861 30.14.086.112.173.225.259.337 6.199 8.065 17.456 10.153 26.182 4.926 17.494-10.478 39.973-20.168 68.018-25.604 2.51-.49 5.09-.49 7.6 0 7.651 1.483 14.886 3.284 21.719 5.33 8.243 2.469 17.095-.938 21.473-8.346.132-.223.264-.446.396-.669 6.212-10.498.858-24.01-10.863-27.39-9.687-2.793-19.88-5.268-30.595-7.345z" fill="#db765a"/><path d="m220.129 16.76c-10.497 3.004-20.402 6.382-29.731 10.034-9.916 3.882-14.547 15.272-10.271 25.024.168.384.337.768.505 1.153 4.18 9.54 15.308 13.859 24.826 9.629 7.763-3.45 16.221-6.625 25.404-9.356 9.713-2.888 15.287-13.049 12.674-22.839-.035-.129-.069-.259-.104-.388-2.708-10.153-13.2-16.148-23.303-13.257z" fill="#ef927d"/><g><g><path d="m232.416 430.892v-50.984c0-5.536-4.488-10.025-10.025-10.025-5.536 0-10.025 4.488-10.025 10.025v50.984c0 5.536 4.488 10.025 10.025 10.025 5.537-.001 10.025-4.489 10.025-10.025z" fill="#ef927d"/></g><path d="m299.633 460.892v-80.984c0-5.536-4.488-10.025-10.025-10.025-5.536 0-10.025 4.488-10.025 10.025v80.984c0 5.536 4.488 10.025 10.025 10.025 5.537-.001 10.025-4.489 10.025-10.025z" fill="#ef927d"/><path d="m299.633 436.691v-29.723c0-5.536-4.488-10.025-10.025-10.025-5.536 0-10.025 4.488-10.025 10.025v29.723c0 5.536 4.488 10.025 10.025 10.025 5.537-.001 10.025-4.489 10.025-10.025z" fill="#f7afa6"/></g><path d="m440.784 352.632h-91.575c-5.536 0-10.025 4.488-10.025 10.025 0 5.536 4.488 10.025 10.025 10.025h91.575c5.536 0 10.025-4.488 10.025-10.025 0-5.537-4.489-10.025-10.025-10.025z" fill="#db765a"/><path d="m420.489 352.632h-30.206c-5.536 0-10.025 4.488-10.025 10.025 0 5.536 4.488 10.025 10.025 10.025h30.206c5.536 0 10.025-4.488 10.025-10.025-.001-5.537-4.489-10.025-10.025-10.025z" fill="#ef927d"/><path d="m144.57 352.632h-100.273c-5.536 0-10.025 4.488-10.025 10.025 0 5.536 4.488 10.025 10.025 10.025h100.273c5.536 0 10.025-4.488 10.025-10.025-.001-5.537-4.489-10.025-10.025-10.025z" fill="#db765a"/><path d="m119.926 352.632h-48.085c-5.536 0-10.025 4.488-10.025 10.025 0 5.536 4.488 10.025 10.025 10.025h48.085c5.536 0 10.025-4.488 10.025-10.025-.001-5.537-4.489-10.025-10.025-10.025z" fill="#ef927d"/><path d="m183.53 418.722h-100.273c-5.536 0-10.025 4.488-10.025 10.025 0 5.536 4.488 10.025 10.025 10.025h100.273c5.536 0 10.025-4.488 10.025-10.025-.001-5.537-4.489-10.025-10.025-10.025z" fill="#db765a"/><path d="m162.449 418.722h-53.884c-5.536 0-10.025 4.488-10.025 10.025 0 5.536 4.488 10.025 10.025 10.025h53.884c5.536 0 10.025-4.488 10.025-10.025 0-5.537-4.489-10.025-10.025-10.025z" fill="#ef927d"/><path d="m433.168 418.722h-100.273c-5.536 0-10.025 4.488-10.025 10.025 0 5.536 4.488 10.025 10.025 10.025h100.273c5.536 0 10.025-4.488 10.025-10.025-.001-5.537-4.489-10.025-10.025-10.025z" fill="#db765a"/><path d="m378.932 418.722h-24.407c-5.536 0-10.025 4.488-10.025 10.025 0 5.536 4.488 10.025 10.025 10.025h24.407c5.536 0 10.025-4.488 10.025-10.025-.001-5.537-4.489-10.025-10.025-10.025z" fill="#ef927d"/></g></svg>