<?xml version="1.0" encoding="utf-8"?><svg xmlns="http://www.w3.org/2000/svg" xmlns:xlink="http://www.w3.org/1999/xlink" width="1536" height="484" preserveAspectRatio="xMidYMid" viewBox="0 0 1536 484" style="z-index:1;margin-right:-2px;display:block;background-repeat-y:initial;background-repeat-x:initial;background-color:rgb(255, 255, 255);animation-play-state:paused" ><g transform="translate(768,242) scale(-1,-1) translate(-768,-242)" style="transform:matrix(-1, 0, 0, -1, 1536, 484);animation-play-state:paused" ><linearGradient id="lg-0.5347420529885385" x1="0" x2="1" y1="0" y2="0" style="animation-play-state:paused" ><stop stop-color="#0b997d" offset="0" style="animation-play-state:paused" ></stop>

  
<stop stop-color="#00b894" offset="1" style="animation-play-state:paused" ></stop></linearGradient>
<path d="M 0 0 L 0 255.135 Q 153.6 194.967 307.2 176.754 T 614.4 113.228 T 921.6 180.65 T 1228.8 127.597 T 1536 41.1254 L 1536 0 Z" fill="url(#lg-0.5347420529885385)" opacity="0.4" style="opacity:0.4;animation-play-state:paused" ></path>
<path d="M 0 0 L 0 291.756 Q 153.6 248.693 307.2 218.227 T 614.4 139.881 T 921.6 173.849 T 1228.8 96.8351 T 1536 36.248 L 1536 0 Z" fill="url(#lg-0.5347420529885385)" opacity="0.4" style="opacity:0.4;animation-play-state:paused" ></path>
<path d="M 0 0 L 0 295.758 Q 153.6 248.382 307.2 220.055 T 614.4 115.727 T 921.6 164.499 T 1228.8 94.8348 T 1536 14.9104 L 1536 0 Z" fill="url(#lg-0.5347420529885385)" opacity="0.4" style="opacity:0.4;animation-play-state:paused" ></path>
<path d="M 0 0 L 0 275.88 Q 153.6 256.396 307.2 226.143 T 614.4 198.698 T 921.6 112.053 T 1228.8 25.4586 T 1536 16.3063 L 1536 0 Z" fill="url(#lg-0.5347420529885385)" opacity="0.4" style="opacity:0.4;animation-play-state:paused" ></path>
<path d="M 0 0 L 0 277.81 Q 153.6 211.318 307.2 186.64 T 614.4 177.88 T 921.6 146.735 T 1228.8 27.4138 T 1536 1.86338 L 1536 0 Z" fill="url(#lg-0.5347420529885385)" opacity="0.4" style="opacity:0.4;animation-play-state:paused" ></path>
<path d="M 0 0 L 0 326.999 Q 153.6 215.307 307.2 181.206 T 614.4 118.666 T 921.6 109.308 T 1228.8 42.3646 T 1536 53.372 L 1536 0 Z" fill="url(#lg-0.5347420529885385)" opacity="0.4" style="opacity:0.4;animation-play-state:paused" ></path>
<path d="M 0 0 L 0 325.202 Q 153.6 220.082 307.2 197.507 T 614.4 116.846 T 921.6 131.137 T 1228.8 53.1575 T 1536 -30.3295 L 1536 0 Z" fill="url(#lg-0.5347420529885385)" opacity="0.4" style="opacity:0.4;animation-play-state:paused" ></path></g></svg>